<?xml version="1.0" encoding="iso-8859-1"?>
<!-- Generator: Adobe Illustrator 17.1.0, SVG Export Plug-In . SVG Version: 6.00 Build 0)  -->
<!DOCTYPE svg PUBLIC "-//W3C//DTD SVG 1.1//EN" "http://www.w3.org/Graphics/SVG/1.1/DTD/svg11.dtd">
<svg xmlns="http://www.w3.org/2000/svg" xmlns:xlink="http://www.w3.org/1999/xlink" version="1.1" id="Capa_1" x="0px" y="0px" viewBox="0 0 289.616 289.616" style="enable-background:new 0 0 289.616 289.616;" xml:space="preserve" width="512px" height="512px">
<path d="M194.475,211.965v-85.132l-11.935-25.828c-2.356-2.488-6.065-4.531-10.065-5.975v5.37c0,4.143-2.805,7.601-6.947,7.601  h-15.439c-4.143,0-7.613-3.458-7.613-7.601v-5.37c-4,1.445-7.71,3.487-10.066,5.975l-11.934,25.828v85.132c0,5.522-4.478,10-10,10  s-10-4.478-10-10v-87.344c0-1.457,0.323-2.896,0.937-4.218l13.464-29.115c0.349-0.749,0.719-1.452,1.241-2.094  c5.887-7.235,15.358-12.423,26.358-14.9v-9.321c-22-4.718-37-19.542-37-37.588V20H66.528c-5.522,0-10-4.478-10-10s4.478-10,10-10  h49.5c5.522,0,9.447,4.361,9.447,9.884v17.502c0,10.212,14.853,19.169,31.5,19.169s31.5-8.957,31.5-19.169V9.884  c0-5.522,4.53-9.884,10.053-9.884h49.5c5.522,0,10,4.478,10,10s-4.478,10-10,10h-39.553v7.386c0,17.746-15,32.38-36,37.348v9.561  c11,2.476,20.715,7.665,26.602,14.9c0.521,0.642,1.108,1.345,1.456,2.094l13.324,29.115c0.614,1.321,0.618,2.761,0.618,4.218v87.344  c0,5.522-4.478,10-10,10S194.475,217.487,194.475,211.965z M157.475,115.519c-14.896,0-27,12.119-27,27.015v120.068  c0,14.896,12.104,27.015,27,27.015s27-12.119,27-27.015V142.533C184.475,127.638,172.371,115.519,157.475,115.519z M81.808,155h-46  c-5.522,0-10,4.478-10,10s4.478,10,10,10h46c5.522,0,10-4.478,10-10S87.331,155,81.808,155z M253.808,250h-47  c-5.522,0-10,4.478-10,10s4.478,10,10,10h47c5.522,0,10-4.478,10-10S259.331,250,253.808,250z" fill="#1A1C18"/>
<g>
</g>
<g>
</g>
<g>
</g>
<g>
</g>
<g>
</g>
<g>
</g>
<g>
</g>
<g>
</g>
<g>
</g>
<g>
</g>
<g>
</g>
<g>
</g>
<g>
</g>
<g>
</g>
<g>
</g>
</svg>
